<?xml version="1.0" standalone="no"?>
<!DOCTYPE svg PUBLIC "-//W3C//DTD SVG 20010904//EN"
 "http://www.w3.org/TR/2001/REC-SVG-20010904/DTD/svg10.dtd">
<svg version="1.0" xmlns="http://www.w3.org/2000/svg"
 width="736.000000pt" height="736.000000pt" viewBox="0 0 736.000000 736.000000"
 preserveAspectRatio="xMidYMid meet">
<metadata>
Created by potrace 1.14, written by Peter Selinger 2001-2017
</metadata>
<g transform="translate(0.000000,736.000000) scale(0.100000,-0.100000)"
fill="#000000" stroke="none">
<path d="M4185 5829 c-124 -13 -227 -43 -315 -91 -291 -159 -515 -436 -432
-533 88 -103 475 -382 518 -373 48 9 124 165 124 254 0 23 -9 69 -20 104 -45
142 -49 250 -11 335 19 42 67 105 81 105 4 0 -1 -28 -12 -62 -35 -113 -35
-187 2 -323 21 -77 33 -145 34 -191 1 -64 -3 -78 -41 -156 -48 -97 -98 -148
-143 -148 -43 0 -124 33 -219 90 -46 27 -87 48 -91 45 -4 -3 -11 -21 -15 -42
-12 -65 -85 -295 -132 -413 -134 -341 -307 -603 -663 -1005 -540 -609 -765
-921 -858 -1187 -62 -175 -79 -385 -46 -558 16 -85 71 -217 125 -302 l31 -48
282 0 c653 0 942 52 1142 203 289 219 327 629 77 833 -87 71 -146 89 -298 89
-120 0 -135 -2 -196 -28 -91 -39 -173 -108 -221 -187 -68 -113 -80 -197 -34
-236 54 -47 116 -21 136 59 26 101 68 155 156 198 166 82 356 32 424 -113 71
-149 38 -307 -91 -437 -144 -145 -344 -195 -855 -217 l-162 -7 -13 89 c-8 49
-14 163 -14 254 0 135 5 184 24 270 47 213 127 363 277 519 140 146 298 251
564 375 298 139 371 177 415 219 25 24 45 49 45 55 0 6 -15 19 -32 28 -59 30
-92 62 -126 118 -76 124 -42 310 79 436 43 45 47 54 54 114 3 36 8 66 11 66 2
0 38 -25 80 -55 76 -54 78 -55 146 -55 l70 0 101 90 c69 62 103 86 108 78 14
-25 79 -304 99 -423 68 -402 48 -700 -79 -1174 -98 -364 -122 -542 -103 -758
6 -70 17 -153 23 -184 l11 -57 50 -6 c62 -9 107 -48 109 -95 1 -17 2 -37 3
-43 1 -10 53 -14 219 -16 l217 -2 0 92 c0 132 -29 174 -136 201 l-49 12 -19
75 c-15 59 -19 113 -20 255 -1 201 7 253 74 485 103 356 140 560 147 809 6
206 2 252 -57 556 -57 296 -63 351 -57 584 5 218 15 279 62 372 44 85 70 107
219 179 78 37 172 89 211 114 l70 47 62 -12 c59 -12 65 -11 91 8 50 37 39 74
-29 95 -22 6 -39 13 -39 15 0 3 9 39 19 81 29 115 34 164 21 211 -15 58 -41
67 -241 86 -234 23 -242 25 -319 99 -67 65 -118 97 -199 123 -57 19 -299 25
-426 12z m438 -252 c18 -8 39 -22 47 -32 14 -16 13 -17 -5 -12 -76 23 -109 16
-162 -36 -23 -21 -33 -26 -33 -15 0 23 43 81 70 95 32 16 43 16 83 0z"/>
<path d="M3956 3748 c-32 -46 -11 -118 34 -118 36 0 55 24 55 70 0 21 -7 45
-14 54 -19 23 -57 20 -75 -6z"/>
<path d="M3676 3744 c-28 -27 -14 -104 19 -104 23 0 45 30 45 60 0 27 -22 60
-40 60 -5 0 -16 -7 -24 -16z"/>
<path d="M3733 3592 l-22 -7 19 -42 c10 -24 21 -43 24 -43 3 0 20 19 36 42 28
39 29 43 13 49 -22 9 -41 9 -70 1z"/>
</g>
</svg>
